<svg width="30" height="30" viewBox="0 0 30 30" fill="none" xmlns="http://www.w3.org/2000/svg">
<path d="M6.25 7.5H28.75V22.5H6.25V7.5ZM17.5 11.25C18.4946 11.25 19.4484 11.6451 20.1517 12.3483C20.8549 13.0516 21.25 14.0054 21.25 15C21.25 15.9946 20.8549 16.9484 20.1517 17.6517C19.4484 18.3549 18.4946 18.75 17.5 18.75C16.5054 18.75 15.5516 18.3549 14.8483 17.6517C14.1451 16.9484 13.75 15.9946 13.75 15C13.75 14.0054 14.1451 13.0516 14.8483 12.3483C15.5516 11.6451 16.5054 11.25 17.5 11.25ZM11.25 10C11.25 10.663 10.9866 11.2989 10.5178 11.7678C10.0489 12.2366 9.41304 12.5 8.75 12.5V17.5C9.41304 17.5 10.0489 17.7634 10.5178 18.2322C10.9866 18.7011 11.25 19.337 11.25 20H23.75C23.75 19.337 24.0134 18.7011 24.4822 18.2322C24.9511 17.7634 25.587 17.5 26.25 17.5V12.5C25.587 12.5 24.9511 12.2366 24.4822 11.7678C24.0134 11.2989 23.75 10.663 23.75 10H11.25ZM1.25 12.5H3.75V25H23.75V27.5H1.25V12.5Z" fill="#357074"/>
</svg>
