<svg
  width="30"
  height="30"
  viewBox="0 0 30 30"
  fill="none"
  xmlns="http://www.w3.org/2000/svg"
>
<path
    d="M28.7093 6.97611C28.579 6.84459 28.4238 6.74029 28.2528 6.66929C28.0818 6.59828 27.8984 6.56198 27.7132 6.5625H26.7188V4.21875C26.7183 3.84592 26.57 3.48848 26.3064 3.22484C26.0428 2.96121 25.6853 2.81292 25.3125 2.8125H5.0758C3.97826 2.81252 2.92568 3.24852 2.1496 4.0246C1.37352 4.80068 0.937516 5.85326 0.9375 6.9508V23.0492C0.937516 24.1467 1.37352 25.1993 2.1496 25.9754C2.92568 26.7515 3.97826 27.1875 5.0758 27.1875H27.6578C28.0298 27.1868 28.3864 27.039 28.6498 26.7764C28.9132 26.5138 29.0622 26.1577 29.0641 25.7858L29.1194 7.97355C29.1206 7.78841 29.0849 7.60489 29.0145 7.43366C28.9441 7.26242 28.8404 7.10689 28.7093 6.97611ZM27.1906 25.3125H5.0758C4.47554 25.3125 3.89986 25.074 3.47541 24.6496C3.05095 24.2251 2.8125 23.6495 2.8125 23.0492V6.9508C2.8125 6.35054 3.05095 5.77486 3.47541 5.35041C3.89986 4.92595 4.47554 4.6875 5.0758 4.6875H24.8438V6.5625H5.15625V8.4375H27.243L27.1906 25.3125Z"
    fill="#357074"
  />
<path d="M22.9688 15.4688H24.8438V17.3438H22.9688V15.4688Z" fill="#357074" />
<circle
    cx="21.7"
    cy="21.7"
    r="7.65"
    fill="white"
    stroke="#357074"
    stroke-width="1.3"
  />
<g clip-path="url(#clip0_5_10)">
<path
      d="M26 21.6667H22.3333V18C22.3333 17.9116 22.2982 17.8268 22.2357 17.7643C22.1732 17.7018 22.0884 17.6667 22 17.6667C21.9116 17.6667 21.8268 17.7018 21.7643 17.7643C21.7018 17.8268 21.6667 17.9116 21.6667 18V21.6667H18C17.9116 21.6667 17.8268 21.7018 17.7643 21.7643C17.7018 21.8268 17.6667 21.9116 17.6667 22C17.665 22.0433 17.6727 22.0865 17.6891 22.1266C17.7056 22.1667 17.7304 22.2028 17.762 22.2325C17.7936 22.2622 17.8312 22.2848 17.8723 22.2987C17.9133 22.3127 17.9569 22.3176 18 22.3133H21.6667V26C21.6667 26.0884 21.7018 26.1732 21.7643 26.2357C21.8268 26.2982 21.9116 26.3333 22 26.3333C22.0884 26.3333 22.1732 26.2982 22.2357 26.2357C22.2982 26.1732 22.3333 26.0884 22.3333 26V22.3333H26C26.0884 22.3333 26.1732 22.2982 26.2357 22.2357C26.2982 22.1732 26.3333 22.0884 26.3333 22C26.3333 21.9116 26.2982 21.8268 26.2357 21.7643C26.1732 21.7018 26.0884 21.6667 26 21.6667Z"
      fill="#357074"
    />
</g>
<defs>
<clipPath id="clip0_5_10">
<rect width="12" height="12" fill="white" transform="translate(16 16)" />
</clipPath>
</defs>
</svg>
