<svg width="30" height="30" viewBox="0 0 30 30" fill="none" xmlns="http://www.w3.org/2000/svg">
<g clip-path="url(#clip0_5_40)">
<path d="M15 0L18.75 5.625H16.875V9.375H13.125V5.625H11.25L15 0ZM28.125 13.125V28.125H1.875V13.125H28.125ZM30 11.25H0V30H30V11.25Z" fill="#357074"/>
<path d="M15 15C15.7387 15 16.4701 15.1455 17.1526 15.4282C17.8351 15.7109 18.4551 16.1252 18.9775 16.6475C19.4998 17.1699 19.9141 17.7899 20.1968 18.4724C20.4795 19.1549 20.625 19.8863 20.625 20.625C20.625 21.3637 20.4795 22.0951 20.1968 22.7776C19.9141 23.4601 19.4998 24.0801 18.9775 24.6025C18.4551 25.1248 17.8351 25.5391 17.1526 25.8218C16.4701 26.1045 15.7387 26.25 15 26.25H24.375V24.375H26.25V16.875H24.375V15H15ZM9.375 20.625C9.375 19.1332 9.96763 17.7024 11.0225 16.6475C12.0774 15.5926 13.5082 15 15 15H5.625V16.875H3.75V24.375H5.625V26.25H15C13.5082 26.25 12.0774 25.6574 11.0225 24.6025C9.96763 23.5476 9.375 22.1168 9.375 20.625Z" fill="#357074"/>
</g>
<defs>
<clipPath id="clip0_5_40">
<rect width="30" height="30" fill="white"/>
</clipPath>
</defs>
</svg>
